<svg xmlns="http://www.w3.org/2000/svg" viewBox="0 0 1600 520" width="1600" height="520" font-family="Inter, 'Segoe UI', 'Helvetica Neue', Arial, sans-serif"><defs><radialGradient id="bg" cx="22%" cy="8%" r="120%"><stop offset="0%" stop-color="#0b1020"/><stop offset="100%" stop-color="#060912"/></radialGradient><radialGradient id="blob" cx="50%" cy="50%" r="50%"><stop offset="0%" stop-color="#818cf8" stop-opacity="0.18"/><stop offset="100%" stop-color="#818cf8" stop-opacity="0"/></radialGradient><linearGradient id="word" x1="0" y1="0" x2="1" y2="0.4"><stop offset="0%" stop-color="#2dd4bf"/><stop offset="100%" stop-color="#818cf8"/></linearGradient><linearGradient id="rule" x1="0" y1="0" x2="1" y2="0"><stop offset="0%" stop-color="#2dd4bf"/><stop offset="100%" stop-color="#818cf8" stop-opacity="0"/></linearGradient><linearGradient id="sheen" x1="0" y1="0" x2="0" y2="1"><stop offset="0%" stop-color="#ffffff" stop-opacity="0.9"/><stop offset="100%" stop-color="#ffffff" stop-opacity="0"/></linearGradient><linearGradient id="gate" x1="0" y1="0" x2="0" y2="1"><stop offset="0%" stop-color="#0f3f2f"/><stop offset="100%" stop-color="#12261f"/></linearGradient><filter id="soft" x="-20%" y="-20%" width="140%" height="140%"><feDropShadow dx="0" dy="3" stdDeviation="5" flood-color="#000000" flood-opacity="0.28"/></filter><filter id="glow" x="-80%" y="-80%" width="260%" height="260%"><feDropShadow dx="0" dy="0" stdDeviation="9" flood-color="#fbbf24" flood-opacity="0.55"/></filter><marker id="bah" viewBox="0 0 10 10" refX="8.5" refY="5" markerWidth="7" markerHeight="7" orient="auto-start-reverse"><path d="M0 0 L10 5 L0 10 L3 5 Z" fill="#7c8aa5"/></marker></defs><rect width="1600" height="520" fill="url(#bg)" rx="0"/><circle cx="120" cy="70" r="520" fill="url(#blob)"/><g opacity="0.5"><circle cx="40" cy="60" r="1" fill="#1b2438"/><circle cx="72" cy="60" r="1" fill="#1b2438"/><circle cx="104" cy="60" r="1" fill="#1b2438"/><circle cx="136" cy="60" r="1" fill="#1b2438"/><circle cx="168" cy="60" r="1" fill="#1b2438"/><circle cx="200" cy="60" r="1" fill="#1b2438"/><circle cx="232" cy="60" r="1" fill="#1b2438"/><circle cx="264" cy="60" r="1" fill="#1b2438"/><circle cx="296" cy="60" r="1" fill="#1b2438"/><circle cx="328" cy="60" r="1" fill="#1b2438"/><circle cx="360" cy="60" r="1" fill="#1b2438"/><circle cx="392" cy="60" r="1" fill="#1b2438"/><circle cx="424" cy="60" r="1" fill="#1b2438"/><circle cx="456" cy="60" r="1" fill="#1b2438"/><circle cx="488" cy="60" r="1" fill="#1b2438"/><circle cx="520" cy="60" r="1" fill="#1b2438"/><circle cx="552" cy="60" r="1" fill="#1b2438"/><circle cx="584" cy="60" r="1" fill="#1b2438"/><circle cx="616" cy="60" r="1" fill="#1b2438"/><circle cx="648" cy="60" r="1" fill="#1b2438"/><circle cx="680" cy="60" r="1" fill="#1b2438"/><circle cx="712" cy="60" r="1" fill="#1b2438"/><circle cx="744" cy="60" r="1" fill="#1b2438"/><circle cx="776" cy="60" r="1" fill="#1b2438"/><circle cx="808" cy="60" r="1" fill="#1b2438"/><circle cx="840" cy="60" r="1" fill="#1b2438"/><circle cx="872" cy="60" r="1" fill="#1b2438"/><circle cx="904" cy="60" r="1" fill="#1b2438"/><circle cx="936" cy="60" r="1" fill="#1b2438"/><circle cx="968" cy="60" r="1" fill="#1b2438"/><circle cx="1000" cy="60" r="1" fill="#1b2438"/><circle cx="1032" cy="60" r="1" fill="#1b2438"/><circle cx="1064" cy="60" r="1" fill="#1b2438"/><circle cx="1096" cy="60" r="1" fill="#1b2438"/><circle cx="1128" cy="60" r="1" fill="#1b2438"/><circle cx="1160" cy="60" r="1" fill="#1b2438"/><circle cx="1192" cy="60" r="1" fill="#1b2438"/><circle cx="1224" cy="60" r="1" fill="#1b2438"/><circle cx="1256" cy="60" r="1" fill="#1b2438"/><circle cx="1288" cy="60" r="1" fill="#1b2438"/><circle cx="1320" cy="60" r="1" fill="#1b2438"/><circle cx="1352" cy="60" r="1" fill="#1b2438"/><circle cx="1384" cy="60" r="1" fill="#1b2438"/><circle cx="1416" cy="60" r="1" fill="#1b2438"/><circle cx="1448" cy="60" r="1" fill="#1b2438"/><circle cx="1480" cy="60" r="1" fill="#1b2438"/><circle cx="1512" cy="60" r="1" fill="#1b2438"/><circle cx="1544" cy="60" r="1" fill="#1b2438"/><circle cx="1576" cy="60" r="1" fill="#1b2438"/><circle cx="40" cy="92" r="1" fill="#1b2438"/><circle cx="72" cy="92" r="1" fill="#1b2438"/><circle cx="104" cy="92" r="1" fill="#1b2438"/><circle cx="136" cy="92" r="1" fill="#1b2438"/><circle cx="168" cy="92" r="1" fill="#1b2438"/><circle cx="200" cy="92" r="1" fill="#1b2438"/><circle cx="232" cy="92" r="1" fill="#1b2438"/><circle cx="264" cy="92" r="1" fill="#1b2438"/><circle cx="296" cy="92" r="1" fill="#1b2438"/><circle cx="328" cy="92" r="1" fill="#1b2438"/><circle cx="360" cy="92" r="1" fill="#1b2438"/><circle cx="392" cy="92" r="1" fill="#1b2438"/><circle cx="424" cy="92" r="1" fill="#1b2438"/><circle cx="456" cy="92" r="1" fill="#1b2438"/><circle cx="488" cy="92" r="1" fill="#1b2438"/><circle cx="520" cy="92" r="1" fill="#1b2438"/><circle cx="552" cy="92" r="1" fill="#1b2438"/><circle cx="584" cy="92" r="1" fill="#1b2438"/><circle cx="616" cy="92" r="1" fill="#1b2438"/><circle cx="648" cy="92" r="1" fill="#1b2438"/><circle cx="680" cy="92" r="1" fill="#1b2438"/><circle cx="712" cy="92" r="1" fill="#1b2438"/><circle cx="744" cy="92" r="1" fill="#1b2438"/><circle cx="776" cy="92" r="1" fill="#1b2438"/><circle cx="808" cy="92" r="1" fill="#1b2438"/><circle cx="840" cy="92" r="1" fill="#1b2438"/><circle cx="872" cy="92" r="1" fill="#1b2438"/><circle cx="904" cy="92" r="1" fill="#1b2438"/><circle cx="936" cy="92" r="1" fill="#1b2438"/><circle cx="968" cy="92" r="1" fill="#1b2438"/><circle cx="1000" cy="92" r="1" fill="#1b2438"/><circle cx="1032" cy="92" r="1" fill="#1b2438"/><circle cx="1064" cy="92" r="1" fill="#1b2438"/><circle cx="1096" cy="92" r="1" fill="#1b2438"/><circle cx="1128" cy="92" r="1" fill="#1b2438"/><circle cx="1160" cy="92" r="1" fill="#1b2438"/><circle cx="1192" cy="92" r="1" fill="#1b2438"/><circle cx="1224" cy="92" r="1" fill="#1b2438"/><circle cx="1256" cy="92" r="1" fill="#1b2438"/><circle cx="1288" cy="92" r="1" fill="#1b2438"/><circle cx="1320" cy="92" r="1" fill="#1b2438"/><circle cx="1352" cy="92" r="1" fill="#1b2438"/><circle cx="1384" cy="92" r="1" fill="#1b2438"/><circle cx="1416" cy="92" r="1" fill="#1b2438"/><circle cx="1448" cy="92" r="1" fill="#1b2438"/><circle cx="1480" cy="92" r="1" fill="#1b2438"/><circle cx="1512" cy="92" r="1" fill="#1b2438"/><circle cx="1544" cy="92" r="1" fill="#1b2438"/><circle cx="1576" cy="92" r="1" fill="#1b2438"/><circle cx="40" cy="124" r="1" fill="#1b2438"/><circle cx="72" cy="124" r="1" fill="#1b2438"/><circle cx="104" cy="124" r="1" fill="#1b2438"/><circle cx="136" cy="124" r="1" fill="#1b2438"/><circle cx="168" cy="124" r="1" fill="#1b2438"/><circle cx="200" cy="124" r="1" fill="#1b2438"/><circle cx="232" cy="124" r="1" fill="#1b2438"/><circle cx="264" cy="124" r="1" fill="#1b2438"/><circle cx="296" cy="124" r="1" fill="#1b2438"/><circle cx="328" cy="124" r="1" fill="#1b2438"/><circle cx="360" cy="124" r="1" fill="#1b2438"/><circle cx="392" cy="124" r="1" fill="#1b2438"/><circle cx="424" cy="124" r="1" fill="#1b2438"/><circle cx="456" cy="124" r="1" fill="#1b2438"/><circle cx="488" cy="124" r="1" fill="#1b2438"/><circle cx="520" cy="124" r="1" fill="#1b2438"/><circle cx="552" cy="124" r="1" fill="#1b2438"/><circle cx="584" cy="124" r="1" fill="#1b2438"/><circle cx="616" cy="124" r="1" fill="#1b2438"/><circle cx="648" cy="124" r="1" fill="#1b2438"/><circle cx="680" cy="124" r="1" fill="#1b2438"/><circle cx="712" cy="124" r="1" fill="#1b2438"/><circle cx="744" cy="124" r="1" fill="#1b2438"/><circle cx="776" cy="124" r="1" fill="#1b2438"/><circle cx="808" cy="124" r="1" fill="#1b2438"/><circle cx="840" cy="124" r="1" fill="#1b2438"/><circle cx="872" cy="124" r="1" fill="#1b2438"/><circle cx="904" cy="124" r="1" fill="#1b2438"/><circle cx="936" cy="124" r="1" fill="#1b2438"/><circle cx="968" cy="124" r="1" fill="#1b2438"/><circle cx="1000" cy="124" r="1" fill="#1b2438"/><circle cx="1032" cy="124" r="1" fill="#1b2438"/><circle cx="1064" cy="124" r="1" fill="#1b2438"/><circle cx="1096" cy="124" r="1" fill="#1b2438"/><circle cx="1128" cy="124" r="1" fill="#1b2438"/><circle cx="1160" cy="124" r="1" fill="#1b2438"/><circle cx="1192" cy="124" r="1" fill="#1b2438"/><circle cx="1224" cy="124" r="1" fill="#1b2438"/><circle cx="1256" cy="124" r="1" fill="#1b2438"/><circle cx="1288" cy="124" r="1" fill="#1b2438"/><circle cx="1320" cy="124" r="1" fill="#1b2438"/><circle cx="1352" cy="124" r="1" fill="#1b2438"/><circle cx="1384" cy="124" r="1" fill="#1b2438"/><circle cx="1416" cy="124" r="1" fill="#1b2438"/><circle cx="1448" cy="124" r="1" fill="#1b2438"/><circle cx="1480" cy="124" r="1" fill="#1b2438"/><circle cx="1512" cy="124" r="1" fill="#1b2438"/><circle cx="1544" cy="124" r="1" fill="#1b2438"/><circle cx="1576" cy="124" r="1" fill="#1b2438"/><circle cx="40" cy="156" r="1" fill="#1b2438"/><circle cx="72" cy="156" r="1" fill="#1b2438"/><circle cx="104" cy="156" r="1" fill="#1b2438"/><circle cx="136" cy="156" r="1" fill="#1b2438"/><circle cx="168" cy="156" r="1" fill="#1b2438"/><circle cx="200" cy="156" r="1" fill="#1b2438"/><circle cx="232" cy="156" r="1" fill="#1b2438"/><circle cx="264" cy="156" r="1" fill="#1b2438"/><circle cx="296" cy="156" r="1" fill="#1b2438"/><circle cx="328" cy="156" r="1" fill="#1b2438"/><circle cx="360" cy="156" r="1" fill="#1b2438"/><circle cx="392" cy="156" r="1" fill="#1b2438"/><circle cx="424" cy="156" r="1" fill="#1b2438"/><circle cx="456" cy="156" r="1" fill="#1b2438"/><circle cx="488" cy="156" r="1" fill="#1b2438"/><circle cx="520" cy="156" r="1" fill="#1b2438"/><circle cx="552" cy="156" r="1" fill="#1b2438"/><circle cx="584" cy="156" r="1" fill="#1b2438"/><circle cx="616" cy="156" r="1" fill="#1b2438"/><circle cx="648" cy="156" r="1" fill="#1b2438"/><circle cx="680" cy="156" r="1" fill="#1b2438"/><circle cx="712" cy="156" r="1" fill="#1b2438"/><circle cx="744" cy="156" r="1" fill="#1b2438"/><circle cx="776" cy="156" r="1" fill="#1b2438"/><circle cx="808" cy="156" r="1" fill="#1b2438"/><circle cx="840" cy="156" r="1" fill="#1b2438"/><circle cx="872" cy="156" r="1" fill="#1b2438"/><circle cx="904" cy="156" r="1" fill="#1b2438"/><circle cx="936" cy="156" r="1" fill="#1b2438"/><circle cx="968" cy="156" r="1" fill="#1b2438"/><circle cx="1000" cy="156" r="1" fill="#1b2438"/><circle cx="1032" cy="156" r="1" fill="#1b2438"/><circle cx="1064" cy="156" r="1" fill="#1b2438"/><circle cx="1096" cy="156" r="1" fill="#1b2438"/><circle cx="1128" cy="156" r="1" fill="#1b2438"/><circle cx="1160" cy="156" r="1" fill="#1b2438"/><circle cx="1192" cy="156" r="1" fill="#1b2438"/><circle cx="1224" cy="156" r="1" fill="#1b2438"/><circle cx="1256" cy="156" r="1" fill="#1b2438"/><circle cx="1288" cy="156" r="1" fill="#1b2438"/><circle cx="1320" cy="156" r="1" fill="#1b2438"/><circle cx="1352" cy="156" r="1" fill="#1b2438"/><circle cx="1384" cy="156" r="1" fill="#1b2438"/><circle cx="1416" cy="156" r="1" fill="#1b2438"/><circle cx="1448" cy="156" r="1" fill="#1b2438"/><circle cx="1480" cy="156" r="1" fill="#1b2438"/><circle cx="1512" cy="156" r="1" fill="#1b2438"/><circle cx="1544" cy="156" r="1" fill="#1b2438"/><circle cx="1576" cy="156" r="1" fill="#1b2438"/><circle cx="40" cy="188" r="1" fill="#1b2438"/><circle cx="72" cy="188" r="1" fill="#1b2438"/><circle cx="104" cy="188" r="1" fill="#1b2438"/><circle cx="136" cy="188" r="1" fill="#1b2438"/><circle cx="168" cy="188" r="1" fill="#1b2438"/><circle cx="200" cy="188" r="1" fill="#1b2438"/><circle cx="232" cy="188" r="1" fill="#1b2438"/><circle cx="264" cy="188" r="1" fill="#1b2438"/><circle cx="296" cy="188" r="1" fill="#1b2438"/><circle cx="328" cy="188" r="1" fill="#1b2438"/><circle cx="360" cy="188" r="1" fill="#1b2438"/><circle cx="392" cy="188" r="1" fill="#1b2438"/><circle cx="424" cy="188" r="1" fill="#1b2438"/><circle cx="456" cy="188" r="1" fill="#1b2438"/><circle cx="488" cy="188" r="1" fill="#1b2438"/><circle cx="520" cy="188" r="1" fill="#1b2438"/><circle cx="552" cy="188" r="1" fill="#1b2438"/><circle cx="584" cy="188" r="1" fill="#1b2438"/><circle cx="616" cy="188" r="1" fill="#1b2438"/><circle cx="648" cy="188" r="1" fill="#1b2438"/><circle cx="680" cy="188" r="1" fill="#1b2438"/><circle cx="712" cy="188" r="1" fill="#1b2438"/><circle cx="744" cy="188" r="1" fill="#1b2438"/><circle cx="776" cy="188" r="1" fill="#1b2438"/><circle cx="808" cy="188" r="1" fill="#1b2438"/><circle cx="840" cy="188" r="1" fill="#1b2438"/><circle cx="872" cy="188" r="1" fill="#1b2438"/><circle cx="904" cy="188" r="1" fill="#1b2438"/><circle cx="936" cy="188" r="1" fill="#1b2438"/><circle cx="968" cy="188" r="1" fill="#1b2438"/><circle cx="1000" cy="188" r="1" fill="#1b2438"/><circle cx="1032" cy="188" r="1" fill="#1b2438"/><circle cx="1064" cy="188" r="1" fill="#1b2438"/><circle cx="1096" cy="188" r="1" fill="#1b2438"/><circle cx="1128" cy="188" r="1" fill="#1b2438"/><circle cx="1160" cy="188" r="1" fill="#1b2438"/><circle cx="1192" cy="188" r="1" fill="#1b2438"/><circle cx="1224" cy="188" r="1" fill="#1b2438"/><circle cx="1256" cy="188" r="1" fill="#1b2438"/><circle cx="1288" cy="188" r="1" fill="#1b2438"/><circle cx="1320" cy="188" r="1" fill="#1b2438"/><circle cx="1352" cy="188" r="1" fill="#1b2438"/><circle cx="1384" cy="188" r="1" fill="#1b2438"/><circle cx="1416" cy="188" r="1" fill="#1b2438"/><circle cx="1448" cy="188" r="1" fill="#1b2438"/><circle cx="1480" cy="188" r="1" fill="#1b2438"/><circle cx="1512" cy="188" r="1" fill="#1b2438"/><circle cx="1544" cy="188" r="1" fill="#1b2438"/><circle cx="1576" cy="188" r="1" fill="#1b2438"/><circle cx="40" cy="220" r="1" fill="#1b2438"/><circle cx="72" cy="220" r="1" fill="#1b2438"/><circle cx="104" cy="220" r="1" fill="#1b2438"/><circle cx="136" cy="220" r="1" fill="#1b2438"/><circle cx="168" cy="220" r="1" fill="#1b2438"/><circle cx="200" cy="220" r="1" fill="#1b2438"/><circle cx="232" cy="220" r="1" fill="#1b2438"/><circle cx="264" cy="220" r="1" fill="#1b2438"/><circle cx="296" cy="220" r="1" fill="#1b2438"/><circle cx="328" cy="220" r="1" fill="#1b2438"/><circle cx="360" cy="220" r="1" fill="#1b2438"/><circle cx="392" cy="220" r="1" fill="#1b2438"/><circle cx="424" cy="220" r="1" fill="#1b2438"/><circle cx="456" cy="220" r="1" fill="#1b2438"/><circle cx="488" cy="220" r="1" fill="#1b2438"/><circle cx="520" cy="220" r="1" fill="#1b2438"/><circle cx="552" cy="220" r="1" fill="#1b2438"/><circle cx="584" cy="220" r="1" fill="#1b2438"/><circle cx="616" cy="220" r="1" fill="#1b2438"/><circle cx="648" cy="220" r="1" fill="#1b2438"/><circle cx="680" cy="220" r="1" fill="#1b2438"/><circle cx="712" cy="220" r="1" fill="#1b2438"/><circle cx="744" cy="220" r="1" fill="#1b2438"/><circle cx="776" cy="220" r="1" fill="#1b2438"/><circle cx="808" cy="220" r="1" fill="#1b2438"/><circle cx="840" cy="220" r="1" fill="#1b2438"/><circle cx="872" cy="220" r="1" fill="#1b2438"/><circle cx="904" cy="220" r="1" fill="#1b2438"/><circle cx="936" cy="220" r="1" fill="#1b2438"/><circle cx="968" cy="220" r="1" fill="#1b2438"/><circle cx="1000" cy="220" r="1" fill="#1b2438"/><circle cx="1032" cy="220" r="1" fill="#1b2438"/><circle cx="1064" cy="220" r="1" fill="#1b2438"/><circle cx="1096" cy="220" r="1" fill="#1b2438"/><circle cx="1128" cy="220" r="1" fill="#1b2438"/><circle cx="1160" cy="220" r="1" fill="#1b2438"/><circle cx="1192" cy="220" r="1" fill="#1b2438"/><circle cx="1224" cy="220" r="1" fill="#1b2438"/><circle cx="1256" cy="220" r="1" fill="#1b2438"/><circle cx="1288" cy="220" r="1" fill="#1b2438"/><circle cx="1320" cy="220" r="1" fill="#1b2438"/><circle cx="1352" cy="220" r="1" fill="#1b2438"/><circle cx="1384" cy="220" r="1" fill="#1b2438"/><circle cx="1416" cy="220" r="1" fill="#1b2438"/><circle cx="1448" cy="220" r="1" fill="#1b2438"/><circle cx="1480" cy="220" r="1" fill="#1b2438"/><circle cx="1512" cy="220" r="1" fill="#1b2438"/><circle cx="1544" cy="220" r="1" fill="#1b2438"/><circle cx="1576" cy="220" r="1" fill="#1b2438"/><circle cx="40" cy="252" r="1" fill="#1b2438"/><circle cx="72" cy="252" r="1" fill="#1b2438"/><circle cx="104" cy="252" r="1" fill="#1b2438"/><circle cx="136" cy="252" r="1" fill="#1b2438"/><circle cx="168" cy="252" r="1" fill="#1b2438"/><circle cx="200" cy="252" r="1" fill="#1b2438"/><circle cx="232" cy="252" r="1" fill="#1b2438"/><circle cx="264" cy="252" r="1" fill="#1b2438"/><circle cx="296" cy="252" r="1" fill="#1b2438"/><circle cx="328" cy="252" r="1" fill="#1b2438"/><circle cx="360" cy="252" r="1" fill="#1b2438"/><circle cx="392" cy="252" r="1" fill="#1b2438"/><circle cx="424" cy="252" r="1" fill="#1b2438"/><circle cx="456" cy="252" r="1" fill="#1b2438"/><circle cx="488" cy="252" r="1" fill="#1b2438"/><circle cx="520" cy="252" r="1" fill="#1b2438"/><circle cx="552" cy="252" r="1" fill="#1b2438"/><circle cx="584" cy="252" r="1" fill="#1b2438"/><circle cx="616" cy="252" r="1" fill="#1b2438"/><circle cx="648" cy="252" r="1" fill="#1b2438"/><circle cx="680" cy="252" r="1" fill="#1b2438"/><circle cx="712" cy="252" r="1" fill="#1b2438"/><circle cx="744" cy="252" r="1" fill="#1b2438"/><circle cx="776" cy="252" r="1" fill="#1b2438"/><circle cx="808" cy="252" r="1" fill="#1b2438"/><circle cx="840" cy="252" r="1" fill="#1b2438"/><circle cx="872" cy="252" r="1" fill="#1b2438"/><circle cx="904" cy="252" r="1" fill="#1b2438"/><circle cx="936" cy="252" r="1" fill="#1b2438"/><circle cx="968" cy="252" r="1" fill="#1b2438"/><circle cx="1000" cy="252" r="1" fill="#1b2438"/><circle cx="1032" cy="252" r="1" fill="#1b2438"/><circle cx="1064" cy="252" r="1" fill="#1b2438"/><circle cx="1096" cy="252" r="1" fill="#1b2438"/><circle cx="1128" cy="252" r="1" fill="#1b2438"/><circle cx="1160" cy="252" r="1" fill="#1b2438"/><circle cx="1192" cy="252" r="1" fill="#1b2438"/><circle cx="1224" cy="252" r="1" fill="#1b2438"/><circle cx="1256" cy="252" r="1" fill="#1b2438"/><circle cx="1288" cy="252" r="1" fill="#1b2438"/><circle cx="1320" cy="252" r="1" fill="#1b2438"/><circle cx="1352" cy="252" r="1" fill="#1b2438"/><circle cx="1384" cy="252" r="1" fill="#1b2438"/><circle cx="1416" cy="252" r="1" fill="#1b2438"/><circle cx="1448" cy="252" r="1" fill="#1b2438"/><circle cx="1480" cy="252" r="1" fill="#1b2438"/><circle cx="1512" cy="252" r="1" fill="#1b2438"/><circle cx="1544" cy="252" r="1" fill="#1b2438"/><circle cx="1576" cy="252" r="1" fill="#1b2438"/><circle cx="40" cy="284" r="1" fill="#1b2438"/><circle cx="72" cy="284" r="1" fill="#1b2438"/><circle cx="104" cy="284" r="1" fill="#1b2438"/><circle cx="136" cy="284" r="1" fill="#1b2438"/><circle cx="168" cy="284" r="1" fill="#1b2438"/><circle cx="200" cy="284" r="1" fill="#1b2438"/><circle cx="232" cy="284" r="1" fill="#1b2438"/><circle cx="264" cy="284" r="1" fill="#1b2438"/><circle cx="296" cy="284" r="1" fill="#1b2438"/><circle cx="328" cy="284" r="1" fill="#1b2438"/><circle cx="360" cy="284" r="1" fill="#1b2438"/><circle cx="392" cy="284" r="1" fill="#1b2438"/><circle cx="424" cy="284" r="1" fill="#1b2438"/><circle cx="456" cy="284" r="1" fill="#1b2438"/><circle cx="488" cy="284" r="1" fill="#1b2438"/><circle cx="520" cy="284" r="1" fill="#1b2438"/><circle cx="552" cy="284" r="1" fill="#1b2438"/><circle cx="584" cy="284" r="1" fill="#1b2438"/><circle cx="616" cy="284" r="1" fill="#1b2438"/><circle cx="648" cy="284" r="1" fill="#1b2438"/><circle cx="680" cy="284" r="1" fill="#1b2438"/><circle cx="712" cy="284" r="1" fill="#1b2438"/><circle cx="744" cy="284" r="1" fill="#1b2438"/><circle cx="776" cy="284" r="1" fill="#1b2438"/><circle cx="808" cy="284" r="1" fill="#1b2438"/><circle cx="840" cy="284" r="1" fill="#1b2438"/><circle cx="872" cy="284" r="1" fill="#1b2438"/><circle cx="904" cy="284" r="1" fill="#1b2438"/><circle cx="936" cy="284" r="1" fill="#1b2438"/><circle cx="968" cy="284" r="1" fill="#1b2438"/><circle cx="1000" cy="284" r="1" fill="#1b2438"/><circle cx="1032" cy="284" r="1" fill="#1b2438"/><circle cx="1064" cy="284" r="1" fill="#1b2438"/><circle cx="1096" cy="284" r="1" fill="#1b2438"/><circle cx="1128" cy="284" r="1" fill="#1b2438"/><circle cx="1160" cy="284" r="1" fill="#1b2438"/><circle cx="1192" cy="284" r="1" fill="#1b2438"/><circle cx="1224" cy="284" r="1" fill="#1b2438"/><circle cx="1256" cy="284" r="1" fill="#1b2438"/><circle cx="1288" cy="284" r="1" fill="#1b2438"/><circle cx="1320" cy="284" r="1" fill="#1b2438"/><circle cx="1352" cy="284" r="1" fill="#1b2438"/><circle cx="1384" cy="284" r="1" fill="#1b2438"/><circle cx="1416" cy="284" r="1" fill="#1b2438"/><circle cx="1448" cy="284" r="1" fill="#1b2438"/><circle cx="1480" cy="284" r="1" fill="#1b2438"/><circle cx="1512" cy="284" r="1" fill="#1b2438"/><circle cx="1544" cy="284" r="1" fill="#1b2438"/><circle cx="1576" cy="284" r="1" fill="#1b2438"/><circle cx="40" cy="316" r="1" fill="#1b2438"/><circle cx="72" cy="316" r="1" fill="#1b2438"/><circle cx="104" cy="316" r="1" fill="#1b2438"/><circle cx="136" cy="316" r="1" fill="#1b2438"/><circle cx="168" cy="316" r="1" fill="#1b2438"/><circle cx="200" cy="316" r="1" fill="#1b2438"/><circle cx="232" cy="316" r="1" fill="#1b2438"/><circle cx="264" cy="316" r="1" fill="#1b2438"/><circle cx="296" cy="316" r="1" fill="#1b2438"/><circle cx="328" cy="316" r="1" fill="#1b2438"/><circle cx="360" cy="316" r="1" fill="#1b2438"/><circle cx="392" cy="316" r="1" fill="#1b2438"/><circle cx="424" cy="316" r="1" fill="#1b2438"/><circle cx="456" cy="316" r="1" fill="#1b2438"/><circle cx="488" cy="316" r="1" fill="#1b2438"/><circle cx="520" cy="316" r="1" fill="#1b2438"/><circle cx="552" cy="316" r="1" fill="#1b2438"/><circle cx="584" cy="316" r="1" fill="#1b2438"/><circle cx="616" cy="316" r="1" fill="#1b2438"/><circle cx="648" cy="316" r="1" fill="#1b2438"/><circle cx="680" cy="316" r="1" fill="#1b2438"/><circle cx="712" cy="316" r="1" fill="#1b2438"/><circle cx="744" cy="316" r="1" fill="#1b2438"/><circle cx="776" cy="316" r="1" fill="#1b2438"/><circle cx="808" cy="316" r="1" fill="#1b2438"/><circle cx="840" cy="316" r="1" fill="#1b2438"/><circle cx="872" cy="316" r="1" fill="#1b2438"/><circle cx="904" cy="316" r="1" fill="#1b2438"/><circle cx="936" cy="316" r="1" fill="#1b2438"/><circle cx="968" cy="316" r="1" fill="#1b2438"/><circle cx="1000" cy="316" r="1" fill="#1b2438"/><circle cx="1032" cy="316" r="1" fill="#1b2438"/><circle cx="1064" cy="316" r="1" fill="#1b2438"/><circle cx="1096" cy="316" r="1" fill="#1b2438"/><circle cx="1128" cy="316" r="1" fill="#1b2438"/><circle cx="1160" cy="316" r="1" fill="#1b2438"/><circle cx="1192" cy="316" r="1" fill="#1b2438"/><circle cx="1224" cy="316" r="1" fill="#1b2438"/><circle cx="1256" cy="316" r="1" fill="#1b2438"/><circle cx="1288" cy="316" r="1" fill="#1b2438"/><circle cx="1320" cy="316" r="1" fill="#1b2438"/><circle cx="1352" cy="316" r="1" fill="#1b2438"/><circle cx="1384" cy="316" r="1" fill="#1b2438"/><circle cx="1416" cy="316" r="1" fill="#1b2438"/><circle cx="1448" cy="316" r="1" fill="#1b2438"/><circle cx="1480" cy="316" r="1" fill="#1b2438"/><circle cx="1512" cy="316" r="1" fill="#1b2438"/><circle cx="1544" cy="316" r="1" fill="#1b2438"/><circle cx="1576" cy="316" r="1" fill="#1b2438"/><circle cx="40" cy="348" r="1" fill="#1b2438"/><circle cx="72" cy="348" r="1" fill="#1b2438"/><circle cx="104" cy="348" r="1" fill="#1b2438"/><circle cx="136" cy="348" r="1" fill="#1b2438"/><circle cx="168" cy="348" r="1" fill="#1b2438"/><circle cx="200" cy="348" r="1" fill="#1b2438"/><circle cx="232" cy="348" r="1" fill="#1b2438"/><circle cx="264" cy="348" r="1" fill="#1b2438"/><circle cx="296" cy="348" r="1" fill="#1b2438"/><circle cx="328" cy="348" r="1" fill="#1b2438"/><circle cx="360" cy="348" r="1" fill="#1b2438"/><circle cx="392" cy="348" r="1" fill="#1b2438"/><circle cx="424" cy="348" r="1" fill="#1b2438"/><circle cx="456" cy="348" r="1" fill="#1b2438"/><circle cx="488" cy="348" r="1" fill="#1b2438"/><circle cx="520" cy="348" r="1" fill="#1b2438"/><circle cx="552" cy="348" r="1" fill="#1b2438"/><circle cx="584" cy="348" r="1" fill="#1b2438"/><circle cx="616" cy="348" r="1" fill="#1b2438"/><circle cx="648" cy="348" r="1" fill="#1b2438"/><circle cx="680" cy="348" r="1" fill="#1b2438"/><circle cx="712" cy="348" r="1" fill="#1b2438"/><circle cx="744" cy="348" r="1" fill="#1b2438"/><circle cx="776" cy="348" r="1" fill="#1b2438"/><circle cx="808" cy="348" r="1" fill="#1b2438"/><circle cx="840" cy="348" r="1" fill="#1b2438"/><circle cx="872" cy="348" r="1" fill="#1b2438"/><circle cx="904" cy="348" r="1" fill="#1b2438"/><circle cx="936" cy="348" r="1" fill="#1b2438"/><circle cx="968" cy="348" r="1" fill="#1b2438"/><circle cx="1000" cy="348" r="1" fill="#1b2438"/><circle cx="1032" cy="348" r="1" fill="#1b2438"/><circle cx="1064" cy="348" r="1" fill="#1b2438"/><circle cx="1096" cy="348" r="1" fill="#1b2438"/><circle cx="1128" cy="348" r="1" fill="#1b2438"/><circle cx="1160" cy="348" r="1" fill="#1b2438"/><circle cx="1192" cy="348" r="1" fill="#1b2438"/><circle cx="1224" cy="348" r="1" fill="#1b2438"/><circle cx="1256" cy="348" r="1" fill="#1b2438"/><circle cx="1288" cy="348" r="1" fill="#1b2438"/><circle cx="1320" cy="348" r="1" fill="#1b2438"/><circle cx="1352" cy="348" r="1" fill="#1b2438"/><circle cx="1384" cy="348" r="1" fill="#1b2438"/><circle cx="1416" cy="348" r="1" fill="#1b2438"/><circle cx="1448" cy="348" r="1" fill="#1b2438"/><circle cx="1480" cy="348" r="1" fill="#1b2438"/><circle cx="1512" cy="348" r="1" fill="#1b2438"/><circle cx="1544" cy="348" r="1" fill="#1b2438"/><circle cx="1576" cy="348" r="1" fill="#1b2438"/><circle cx="40" cy="380" r="1" fill="#1b2438"/><circle cx="72" cy="380" r="1" fill="#1b2438"/><circle cx="104" cy="380" r="1" fill="#1b2438"/><circle cx="136" cy="380" r="1" fill="#1b2438"/><circle cx="168" cy="380" r="1" fill="#1b2438"/><circle cx="200" cy="380" r="1" fill="#1b2438"/><circle cx="232" cy="380" r="1" fill="#1b2438"/><circle cx="264" cy="380" r="1" fill="#1b2438"/><circle cx="296" cy="380" r="1" fill="#1b2438"/><circle cx="328" cy="380" r="1" fill="#1b2438"/><circle cx="360" cy="380" r="1" fill="#1b2438"/><circle cx="392" cy="380" r="1" fill="#1b2438"/><circle cx="424" cy="380" r="1" fill="#1b2438"/><circle cx="456" cy="380" r="1" fill="#1b2438"/><circle cx="488" cy="380" r="1" fill="#1b2438"/><circle cx="520" cy="380" r="1" fill="#1b2438"/><circle cx="552" cy="380" r="1" fill="#1b2438"/><circle cx="584" cy="380" r="1" fill="#1b2438"/><circle cx="616" cy="380" r="1" fill="#1b2438"/><circle cx="648" cy="380" r="1" fill="#1b2438"/><circle cx="680" cy="380" r="1" fill="#1b2438"/><circle cx="712" cy="380" r="1" fill="#1b2438"/><circle cx="744" cy="380" r="1" fill="#1b2438"/><circle cx="776" cy="380" r="1" fill="#1b2438"/><circle cx="808" cy="380" r="1" fill="#1b2438"/><circle cx="840" cy="380" r="1" fill="#1b2438"/><circle cx="872" cy="380" r="1" fill="#1b2438"/><circle cx="904" cy="380" r="1" fill="#1b2438"/><circle cx="936" cy="380" r="1" fill="#1b2438"/><circle cx="968" cy="380" r="1" fill="#1b2438"/><circle cx="1000" cy="380" r="1" fill="#1b2438"/><circle cx="1032" cy="380" r="1" fill="#1b2438"/><circle cx="1064" cy="380" r="1" fill="#1b2438"/><circle cx="1096" cy="380" r="1" fill="#1b2438"/><circle cx="1128" cy="380" r="1" fill="#1b2438"/><circle cx="1160" cy="380" r="1" fill="#1b2438"/><circle cx="1192" cy="380" r="1" fill="#1b2438"/><circle cx="1224" cy="380" r="1" fill="#1b2438"/><circle cx="1256" cy="380" r="1" fill="#1b2438"/><circle cx="1288" cy="380" r="1" fill="#1b2438"/><circle cx="1320" cy="380" r="1" fill="#1b2438"/><circle cx="1352" cy="380" r="1" fill="#1b2438"/><circle cx="1384" cy="380" r="1" fill="#1b2438"/><circle cx="1416" cy="380" r="1" fill="#1b2438"/><circle cx="1448" cy="380" r="1" fill="#1b2438"/><circle cx="1480" cy="380" r="1" fill="#1b2438"/><circle cx="1512" cy="380" r="1" fill="#1b2438"/><circle cx="1544" cy="380" r="1" fill="#1b2438"/><circle cx="1576" cy="380" r="1" fill="#1b2438"/><circle cx="40" cy="412" r="1" fill="#1b2438"/><circle cx="72" cy="412" r="1" fill="#1b2438"/><circle cx="104" cy="412" r="1" fill="#1b2438"/><circle cx="136" cy="412" r="1" fill="#1b2438"/><circle cx="168" cy="412" r="1" fill="#1b2438"/><circle cx="200" cy="412" r="1" fill="#1b2438"/><circle cx="232" cy="412" r="1" fill="#1b2438"/><circle cx="264" cy="412" r="1" fill="#1b2438"/><circle cx="296" cy="412" r="1" fill="#1b2438"/><circle cx="328" cy="412" r="1" fill="#1b2438"/><circle cx="360" cy="412" r="1" fill="#1b2438"/><circle cx="392" cy="412" r="1" fill="#1b2438"/><circle cx="424" cy="412" r="1" fill="#1b2438"/><circle cx="456" cy="412" r="1" fill="#1b2438"/><circle cx="488" cy="412" r="1" fill="#1b2438"/><circle cx="520" cy="412" r="1" fill="#1b2438"/><circle cx="552" cy="412" r="1" fill="#1b2438"/><circle cx="584" cy="412" r="1" fill="#1b2438"/><circle cx="616" cy="412" r="1" fill="#1b2438"/><circle cx="648" cy="412" r="1" fill="#1b2438"/><circle cx="680" cy="412" r="1" fill="#1b2438"/><circle cx="712" cy="412" r="1" fill="#1b2438"/><circle cx="744" cy="412" r="1" fill="#1b2438"/><circle cx="776" cy="412" r="1" fill="#1b2438"/><circle cx="808" cy="412" r="1" fill="#1b2438"/><circle cx="840" cy="412" r="1" fill="#1b2438"/><circle cx="872" cy="412" r="1" fill="#1b2438"/><circle cx="904" cy="412" r="1" fill="#1b2438"/><circle cx="936" cy="412" r="1" fill="#1b2438"/><circle cx="968" cy="412" r="1" fill="#1b2438"/><circle cx="1000" cy="412" r="1" fill="#1b2438"/><circle cx="1032" cy="412" r="1" fill="#1b2438"/><circle cx="1064" cy="412" r="1" fill="#1b2438"/><circle cx="1096" cy="412" r="1" fill="#1b2438"/><circle cx="1128" cy="412" r="1" fill="#1b2438"/><circle cx="1160" cy="412" r="1" fill="#1b2438"/><circle cx="1192" cy="412" r="1" fill="#1b2438"/><circle cx="1224" cy="412" r="1" fill="#1b2438"/><circle cx="1256" cy="412" r="1" fill="#1b2438"/><circle cx="1288" cy="412" r="1" fill="#1b2438"/><circle cx="1320" cy="412" r="1" fill="#1b2438"/><circle cx="1352" cy="412" r="1" fill="#1b2438"/><circle cx="1384" cy="412" r="1" fill="#1b2438"/><circle cx="1416" cy="412" r="1" fill="#1b2438"/><circle cx="1448" cy="412" r="1" fill="#1b2438"/><circle cx="1480" cy="412" r="1" fill="#1b2438"/><circle cx="1512" cy="412" r="1" fill="#1b2438"/><circle cx="1544" cy="412" r="1" fill="#1b2438"/><circle cx="1576" cy="412" r="1" fill="#1b2438"/><circle cx="40" cy="444" r="1" fill="#1b2438"/><circle cx="72" cy="444" r="1" fill="#1b2438"/><circle cx="104" cy="444" r="1" fill="#1b2438"/><circle cx="136" cy="444" r="1" fill="#1b2438"/><circle cx="168" cy="444" r="1" fill="#1b2438"/><circle cx="200" cy="444" r="1" fill="#1b2438"/><circle cx="232" cy="444" r="1" fill="#1b2438"/><circle cx="264" cy="444" r="1" fill="#1b2438"/><circle cx="296" cy="444" r="1" fill="#1b2438"/><circle cx="328" cy="444" r="1" fill="#1b2438"/><circle cx="360" cy="444" r="1" fill="#1b2438"/><circle cx="392" cy="444" r="1" fill="#1b2438"/><circle cx="424" cy="444" r="1" fill="#1b2438"/><circle cx="456" cy="444" r="1" fill="#1b2438"/><circle cx="488" cy="444" r="1" fill="#1b2438"/><circle cx="520" cy="444" r="1" fill="#1b2438"/><circle cx="552" cy="444" r="1" fill="#1b2438"/><circle cx="584" cy="444" r="1" fill="#1b2438"/><circle cx="616" cy="444" r="1" fill="#1b2438"/><circle cx="648" cy="444" r="1" fill="#1b2438"/><circle cx="680" cy="444" r="1" fill="#1b2438"/><circle cx="712" cy="444" r="1" fill="#1b2438"/><circle cx="744" cy="444" r="1" fill="#1b2438"/><circle cx="776" cy="444" r="1" fill="#1b2438"/><circle cx="808" cy="444" r="1" fill="#1b2438"/><circle cx="840" cy="444" r="1" fill="#1b2438"/><circle cx="872" cy="444" r="1" fill="#1b2438"/><circle cx="904" cy="444" r="1" fill="#1b2438"/><circle cx="936" cy="444" r="1" fill="#1b2438"/><circle cx="968" cy="444" r="1" fill="#1b2438"/><circle cx="1000" cy="444" r="1" fill="#1b2438"/><circle cx="1032" cy="444" r="1" fill="#1b2438"/><circle cx="1064" cy="444" r="1" fill="#1b2438"/><circle cx="1096" cy="444" r="1" fill="#1b2438"/><circle cx="1128" cy="444" r="1" fill="#1b2438"/><circle cx="1160" cy="444" r="1" fill="#1b2438"/><circle cx="1192" cy="444" r="1" fill="#1b2438"/><circle cx="1224" cy="444" r="1" fill="#1b2438"/><circle cx="1256" cy="444" r="1" fill="#1b2438"/><circle cx="1288" cy="444" r="1" fill="#1b2438"/><circle cx="1320" cy="444" r="1" fill="#1b2438"/><circle cx="1352" cy="444" r="1" fill="#1b2438"/><circle cx="1384" cy="444" r="1" fill="#1b2438"/><circle cx="1416" cy="444" r="1" fill="#1b2438"/><circle cx="1448" cy="444" r="1" fill="#1b2438"/><circle cx="1480" cy="444" r="1" fill="#1b2438"/><circle cx="1512" cy="444" r="1" fill="#1b2438"/><circle cx="1544" cy="444" r="1" fill="#1b2438"/><circle cx="1576" cy="444" r="1" fill="#1b2438"/><circle cx="40" cy="476" r="1" fill="#1b2438"/><circle cx="72" cy="476" r="1" fill="#1b2438"/><circle cx="104" cy="476" r="1" fill="#1b2438"/><circle cx="136" cy="476" r="1" fill="#1b2438"/><circle cx="168" cy="476" r="1" fill="#1b2438"/><circle cx="200" cy="476" r="1" fill="#1b2438"/><circle cx="232" cy="476" r="1" fill="#1b2438"/><circle cx="264" cy="476" r="1" fill="#1b2438"/><circle cx="296" cy="476" r="1" fill="#1b2438"/><circle cx="328" cy="476" r="1" fill="#1b2438"/><circle cx="360" cy="476" r="1" fill="#1b2438"/><circle cx="392" cy="476" r="1" fill="#1b2438"/><circle cx="424" cy="476" r="1" fill="#1b2438"/><circle cx="456" cy="476" r="1" fill="#1b2438"/><circle cx="488" cy="476" r="1" fill="#1b2438"/><circle cx="520" cy="476" r="1" fill="#1b2438"/><circle cx="552" cy="476" r="1" fill="#1b2438"/><circle cx="584" cy="476" r="1" fill="#1b2438"/><circle cx="616" cy="476" r="1" fill="#1b2438"/><circle cx="648" cy="476" r="1" fill="#1b2438"/><circle cx="680" cy="476" r="1" fill="#1b2438"/><circle cx="712" cy="476" r="1" fill="#1b2438"/><circle cx="744" cy="476" r="1" fill="#1b2438"/><circle cx="776" cy="476" r="1" fill="#1b2438"/><circle cx="808" cy="476" r="1" fill="#1b2438"/><circle cx="840" cy="476" r="1" fill="#1b2438"/><circle cx="872" cy="476" r="1" fill="#1b2438"/><circle cx="904" cy="476" r="1" fill="#1b2438"/><circle cx="936" cy="476" r="1" fill="#1b2438"/><circle cx="968" cy="476" r="1" fill="#1b2438"/><circle cx="1000" cy="476" r="1" fill="#1b2438"/><circle cx="1032" cy="476" r="1" fill="#1b2438"/><circle cx="1064" cy="476" r="1" fill="#1b2438"/><circle cx="1096" cy="476" r="1" fill="#1b2438"/><circle cx="1128" cy="476" r="1" fill="#1b2438"/><circle cx="1160" cy="476" r="1" fill="#1b2438"/><circle cx="1192" cy="476" r="1" fill="#1b2438"/><circle cx="1224" cy="476" r="1" fill="#1b2438"/><circle cx="1256" cy="476" r="1" fill="#1b2438"/><circle cx="1288" cy="476" r="1" fill="#1b2438"/><circle cx="1320" cy="476" r="1" fill="#1b2438"/><circle cx="1352" cy="476" r="1" fill="#1b2438"/><circle cx="1384" cy="476" r="1" fill="#1b2438"/><circle cx="1416" cy="476" r="1" fill="#1b2438"/><circle cx="1448" cy="476" r="1" fill="#1b2438"/><circle cx="1480" cy="476" r="1" fill="#1b2438"/><circle cx="1512" cy="476" r="1" fill="#1b2438"/><circle cx="1544" cy="476" r="1" fill="#1b2438"/><circle cx="1576" cy="476" r="1" fill="#1b2438"/></g><text x="72.0" y="150.0" font-family="Inter, 'Segoe UI', 'Helvetica Neue', Arial, sans-serif" font-size="78" font-weight="800" fill="url(#word)" text-anchor="start" letter-spacing="0.10em">DRIFT</text><text x="76.0" y="186.0" font-family="Inter, 'Segoe UI', 'Helvetica Neue', Arial, sans-serif" font-size="14.5" font-weight="700" fill="#10b981" text-anchor="start" letter-spacing="0.16em">RELEASE INTELLIGENCE FOR GPU &amp; AI INFRASTRUCTURE</text><rect x="76.0" y="200.0" width="190.0" height="4.0" rx="2" ry="2" fill="url(#rule)"/><text x="72.0" y="262.0" font-family="Inter, 'Segoe UI', 'Helvetica Neue', Arial, sans-serif" font-size="41" font-weight="800" fill="#f8fafc" text-anchor="start">Know the change before</text><text x="72.0" y="306.0" font-family="Inter, 'Segoe UI', 'Helvetica Neue', Arial, sans-serif" font-size="41" font-weight="800" fill="#f8fafc" text-anchor="start">it becomes your incident.</text><text x="74.0" y="352.0" font-family="Inter, 'Segoe UI', 'Helvetica Neue', Arial, sans-serif" font-size="18.5" font-weight="500" fill="#94a3b8" text-anchor="start">Primary releases become cited, review-gated engineering checks.</text><rect x="72.0" y="384.0" width="358.0" height="42.0" rx="21.0" ry="21.0" fill="none" stroke="#10b981" stroke-width="1.6"/><text x="251.0" y="410.0" text-anchor="middle" font-family="Inter, 'Segoe UI', 'Helvetica Neue', Arial, sans-serif" font-size="15" font-weight="700" fill="#5eead4" letter-spacing="0.06em">CITED <tspan fill="#10b981" font-size="16" font-weight="900"> ● </tspan> BOUNDED <tspan fill="#10b981" font-size="16" font-weight="900"> ● </tspan> INSPECTABLE</text><text x="72" y="468" font-family="Inter, 'Segoe UI', 'Helvetica Neue', Arial, sans-serif" font-size="13.5" fill="#94a3b8" font-weight="500">Powered by <tspan font-weight="700" fill="#f59e0b">GPT-5.6 tiers</tspan> · Luna · Terra · Sol</text><rect x="858.0" y="92.0" width="670.0" height="336.0" rx="22" ry="22" fill="#0e1526" stroke="#233047" stroke-width="1.4" opacity="0.92" filter="url(#soft)"/><clipPath id="cardclip"><rect x="858" y="92" width="670" height="336" rx="22"/></clipPath><g clip-path="url(#cardclip)" opacity="0.32"><path d="M 858 158 H 976 V 182 H 1108 V 158 H 1230" fill="none" stroke="#2dd4bf" stroke-width="1.3" stroke-linejoin="round" stroke-linecap="round"/><rect x="973.0" y="155.0" width="6" height="6" rx="1.3" fill="#2dd4bf"/><rect x="1105.0" y="179.0" width="6" height="6" rx="1.3" fill="#2dd4bf"/><rect x="1227.0" y="155.0" width="6" height="6" rx="1.3" fill="#2dd4bf"/><path d="M 1528 178 H 1432 V 208 H 1318" fill="none" stroke="#2dd4bf" stroke-width="1.3" stroke-linejoin="round" stroke-linecap="round"/><rect x="1429.0" y="175.0" width="6" height="6" rx="1.3" fill="#2dd4bf"/><rect x="1315.0" y="205.0" width="6" height="6" rx="1.3" fill="#2dd4bf"/><path d="M 858 286.9 H 898" fill="none" stroke="#2dd4bf" stroke-width="1.3" stroke-linejoin="round" stroke-linecap="round"/><rect x="865.0" y="283.9" width="6" height="6" rx="1.3" fill="#2dd4bf"/><path d="M 1488 286.9 H 1528" fill="none" stroke="#2dd4bf" stroke-width="1.3" stroke-linejoin="round" stroke-linecap="round"/><rect x="1515.0" y="283.9" width="6" height="6" rx="1.3" fill="#2dd4bf"/><path d="M 1043.0 246.9 H 1153.0 V 286.9" fill="none" stroke="#2dd4bf" stroke-width="1.3" stroke-linejoin="round" stroke-linecap="round"/><path d="M 1343.0 246.9 H 1233.0 V 286.9" fill="none" stroke="#2dd4bf" stroke-width="1.3" stroke-linejoin="round" stroke-linecap="round"/><path d="M 1043.0 326.9 H 1153.0 V 286.9" fill="none" stroke="#2dd4bf" stroke-width="1.3" stroke-linejoin="round" stroke-linecap="round"/><path d="M 1343.0 326.9 H 1233.0 V 286.9" fill="none" stroke="#2dd4bf" stroke-width="1.3" stroke-linejoin="round" stroke-linecap="round"/><path d="M 902 350 H 1026 V 372 H 1188 V 350 H 1378 V 330 H 1484" fill="none" stroke="#2dd4bf" stroke-width="1.3" stroke-linejoin="round" stroke-linecap="round"/><rect x="1023.0" y="347.0" width="6" height="6" rx="1.3" fill="#2dd4bf"/><rect x="1185.0" y="369.0" width="6" height="6" rx="1.3" fill="#2dd4bf"/><rect x="1375.0" y="347.0" width="6" height="6" rx="1.3" fill="#2dd4bf"/><rect x="1481.0" y="327.0" width="6" height="6" rx="1.3" fill="#2dd4bf"/></g><g clip-path="url(#cardclip)" fill="#fbbf24" opacity="0.44"><rect x="1067.5" y="411.0" width="11" height="16" rx="2.5"/><rect x="1087.5" y="411.0" width="11" height="16" rx="2.5"/><rect x="1107.5" y="411.0" width="11" height="16" rx="2.5"/><rect x="1127.5" y="411.0" width="11" height="16" rx="2.5"/><rect x="1147.5" y="411.0" width="11" height="16" rx="2.5"/><rect x="1167.5" y="411.0" width="11" height="16" rx="2.5"/><rect x="1187.5" y="411.0" width="11" height="16" rx="2.5"/><rect x="1207.5" y="411.0" width="11" height="16" rx="2.5"/><rect x="1227.5" y="411.0" width="11" height="16" rx="2.5"/><rect x="1247.5" y="411.0" width="11" height="16" rx="2.5"/><rect x="1267.5" y="411.0" width="11" height="16" rx="2.5"/><rect x="1287.5" y="411.0" width="11" height="16" rx="2.5"/><rect x="1307.5" y="411.0" width="11" height="16" rx="2.5"/></g><circle cx="884.0" cy="126.0" r="4.5" fill="#10b981"/><text x="898.0" y="131.0" font-family="Inter, 'Segoe UI', 'Helvetica Neue', Arial, sans-serif" font-size="13.5" font-weight="700" fill="#94a3b8" text-anchor="start" letter-spacing="0.14em">DRIFT EVIDENCE PATH</text><rect x="1394.0" y="113.0" width="112.0" height="28.0" rx="14" ry="14" fill="#10b981" filter="url(#soft)"/><text x="1450.0" y="131.0" font-family="Inter, 'Segoe UI', 'Helvetica Neue', Arial, sans-serif" font-size="12" font-weight="800" fill="#04231a" text-anchor="middle" letter-spacing="0.07em">HUMAN-GATED</text><g filter="url(#soft)"><rect x="892.0" y="249.0" width="168.0" height="78.0" rx="13" ry="13" fill="#0f766e" stroke="#2dd4bf" stroke-width="1.6"/></g><rect x="893.0" y="250.0" width="166.0" height="39.0" rx="12" ry="12" fill="url(#sheen)" opacity="0.12"/><text x="976.0" y="285.0" font-family="Inter, 'Segoe UI', 'Helvetica Neue', Arial, sans-serif" font-size="15.5" font-weight="700" fill="#ecfeff" text-anchor="middle">Release feed</text><text x="976.0" y="303.0" font-family="Inter, 'Segoe UI', 'Helvetica Neue', Arial, sans-serif" font-size="11" font-weight="400" fill="#ecfeff" text-anchor="middle" opacity="0.82">primary source</text><circle cx="905.0" cy="262.0" r="4.5" fill="#f43f5e"/><g filter="url(#glow)"><rect x="1131.0" y="210.0" width="124.0" height="156.0" rx="16" ry="16" fill="url(#gate)" stroke="#fbbf24" stroke-width="2.2"/></g><rect x="1133.0" y="212.0" width="120.0" height="62.4" rx="14" ry="14" fill="url(#sheen)" opacity="0.1"/><circle cx="1193.0" cy="240.0" r="15" fill="#fbbf24"/><text x="1193.0" y="246.0" font-family="Inter, 'Segoe UI', 'Helvetica Neue', Arial, sans-serif" font-size="17" font-weight="800" fill="#12261f" text-anchor="middle">5</text><g stroke="#fef9c3" stroke-width="2.2" fill="none" stroke-linecap="round"><circle cx="1193.0" cy="276.0" r="5"/><path d="M 1184.0 291.0 a 9 8 0 0 1 18 0"/></g><text x="1193.0" y="318.0" font-family="Inter, 'Segoe UI', 'Helvetica Neue', Arial, sans-serif" font-size="13.5" font-weight="800" fill="#fef9c3" text-anchor="middle">HUMAN</text><text x="1193.0" y="336.0" font-family="Inter, 'Segoe UI', 'Helvetica Neue', Arial, sans-serif" font-size="13.5" font-weight="800" fill="#fef9c3" text-anchor="middle">GATE</text><g filter="url(#soft)"><rect x="1326.0" y="249.0" width="168.0" height="78.0" rx="13" ry="13" fill="#166534" stroke="#4ade80" stroke-width="1.6"/></g><rect x="1327.0" y="250.0" width="166.0" height="39.0" rx="12" ry="12" fill="url(#sheen)" opacity="0.12"/><text x="1410.0" y="285.0" font-family="Inter, 'Segoe UI', 'Helvetica Neue', Arial, sans-serif" font-size="15.5" font-weight="700" fill="#f0fdf4" text-anchor="middle">Cited briefing</text><text x="1410.0" y="303.0" font-family="Inter, 'Segoe UI', 'Helvetica Neue', Arial, sans-serif" font-size="11" font-weight="400" fill="#f0fdf4" text-anchor="middle" opacity="0.82">bounded check</text><circle cx="1339.0" cy="262.0" r="4.5" fill="#10b981"/><line x1="1060.0" y1="288.0" x2="1127.0" y2="288.0" stroke="#7c8aa5" stroke-width="2.4" stroke-linecap="round" marker-end="url(#bah)"/><rect x="1061.5" y="262.0" width="64.0" height="17.0" rx="8" ry="8" fill="#0b1020" opacity="0.92"/><text x="1093.5" y="274.0" font-family="Inter, 'Segoe UI', 'Helvetica Neue', Arial, sans-serif" font-size="10.5" font-weight="700" fill="#7c8aa5" text-anchor="middle" letter-spacing="0.04em">untrusted</text><line x1="1259.0" y1="288.0" x2="1326.0" y2="288.0" stroke="#10b981" stroke-width="2.4" stroke-linecap="round" marker-end="url(#bah)"/><rect x="1263.5" y="262.0" width="58.0" height="17.0" rx="8" ry="8" fill="#0b1020" opacity="0.92"/><text x="1292.5" y="274.0" font-family="Inter, 'Segoe UI', 'Helvetica Neue', Arial, sans-serif" font-size="10.5" font-weight="700" fill="#10b981" text-anchor="middle" letter-spacing="0.04em">reviewed</text></svg>